<svg xmlns="http://www.w3.org/2000/svg" version="1.1" xmlns:xlink="http://www.w3.org/1999/xlink" xmlns:svgjs="http://svgjs.dev/svgjs" width="2000" height="348" viewBox="0 0 2000 348"><g transform="matrix(1,0,0,1,-1.2121212121212466,0.5093711758543122)"><svg viewBox="0 0 396 69" data-background-color="#eeefe9" preserveAspectRatio="xMidYMid meet" height="348" width="2000" xmlns="http://www.w3.org/2000/svg" xmlns:xlink="http://www.w3.org/1999/xlink"><g id="tight-bounds" transform="matrix(1,0,0,1,0.2400000000000091,-0.10099600900559835)"><svg viewBox="0 0 395.52 69.20199201801121" height="69.20199201801121" width="395.52"><g><svg viewBox="0 0 510.8393117120662 89.37878734725108" height="69.20199201801121" width="395.52"><g><rect width="5.832323648251552" height="77.60820898458847" x="94.21912511027654" y="5.885289181331302" fill="#000000" opacity="1" stroke-width="0" stroke="transparent" fill-opacity="1" class="rect-qz-0" data-fill-palette-color="primary" rx="1%" id="qz-0" data-palette-color="#030303"></rect></g><g transform="matrix(1,0,0,1,115.31931171206617,12.352639930047005)"><svg viewBox="0 0 395.52 64.67350748715707" height="64.67350748715707" width="395.52"><g id="textblocktransform"><svg viewBox="0 0 395.52 64.67350748715707" height="64.67350748715707" width="395.52" id="textblock"><g><svg viewBox="0 0 395.52 64.67350748715707" height="64.67350748715707" width="395.52"><g transform="matrix(1,0,0,1,0,0)"><svg width="395.52" viewBox="3.83 -36.04 223.33999999999997 36.53" height="64.67350748715707" data-palette-color="#030303"><path d="M27.05-35.55L27.05 0 22.56 0 8.33-27.39 8.33 0 3.83 0 3.83-35.55 8.33-35.55 22.61-8.03 22.61-35.55 27.05-35.55ZM43.63 0.49L43.63 0.49Q38.69 0.49 36.06-2.45 33.42-5.4 33.37-11.08L33.37-11.08 33.37-14.28Q33.37-20.19 35.95-23.55 38.52-26.9 43.14-26.9L43.14-26.9Q47.78-26.9 50.07-23.95 52.37-21 52.41-14.75L52.41-14.75 52.41-11.91 37.67-11.91 37.67-11.3Q37.67-7.06 39.27-5.13 40.87-3.2 43.87-3.2L43.87-3.2Q45.77-3.2 47.23-3.92 48.68-4.64 49.95-6.2L49.95-6.2 52.19-3.47Q49.39 0.49 43.63 0.49ZM43.14-23.19L43.14-23.19Q40.45-23.19 39.16-21.35 37.86-19.51 37.69-15.63L37.69-15.63 48.09-15.63 48.09-16.21Q47.92-19.97 46.74-21.58 45.55-23.19 43.14-23.19ZM71.16 0L71.06-2.32Q68.92 0.49 64.79 0.49L64.79 0.49Q61.2 0.49 59.37-1.99 57.54-4.47 57.51-9.2L57.51-9.2 57.51-26.42 61.81-26.42 61.81-9.52Q61.81-3.34 65.52-3.34L65.52-3.34Q69.45-3.34 70.94-6.86L70.94-6.86 70.94-26.42 75.26-26.42 75.26 0 71.16 0ZM83.12-32.81L87.42-32.81 87.42-26.42 91.4-26.42 91.4-22.92 87.42-22.92 87.42-6.54Q87.42-4.98 87.93-4.17 88.44-3.37 89.69-3.37L89.69-3.37Q90.54-3.37 91.42-3.66L91.42-3.66 91.37 0Q89.91 0.49 88.37 0.49L88.37 0.49Q85.81 0.49 84.47-1.34 83.12-3.17 83.12-6.52L83.12-6.52 83.12-22.92 79.09-22.92 79.09-26.42 83.12-26.42 83.12-32.81ZM107.41-26.56L107.44-22.36Q106.53-22.53 105.48-22.53L105.48-22.53Q102.16-22.53 100.84-18.9L100.84-18.9 100.84 0 96.52 0 96.52-26.42 100.72-26.42 100.8-23.73Q102.53-26.9 105.7-26.9L105.7-26.9Q106.73-26.9 107.41-26.56L107.41-26.56ZM110.34-11.55L110.34-14.43Q110.34-20.19 113.13-23.55 115.93-26.9 120.52-26.9 125.11-26.9 127.9-23.63 130.7-20.36 130.77-14.72L130.77-14.72 130.77-11.94Q130.77-6.2 127.99-2.86 125.21 0.49 120.57 0.49L120.57 0.49Q115.98 0.49 113.21-2.76 110.44-6.01 110.34-11.55L110.34-11.55ZM114.66-14.45L114.66-11.94Q114.66-7.86 116.26-5.53 117.86-3.2 120.57-3.2L120.57-3.2Q126.28-3.2 126.45-11.45L126.45-11.45 126.45-14.43Q126.45-18.48 124.84-20.84 123.23-23.19 120.52-23.19L120.52-23.19Q117.86-23.19 116.26-20.84 114.66-18.48 114.66-14.45L114.66-14.45ZM139.02-35.55L147.1-6.86 155.23-35.55 160.14-35.55 149.08 0 145.18 0 134.14-35.55 139.02-35.55ZM169-26.42L169 0 164.68 0 164.68-26.42 169-26.42ZM169.34-33.42L169.34-33.42Q169.34-32.32 168.73-31.59 168.12-30.86 166.88-30.86L166.88-30.86Q165.66-30.86 165.05-31.59 164.44-32.32 164.44-33.42 164.44-34.52 165.05-35.28 165.66-36.04 166.88-36.04 168.1-36.04 168.72-35.27 169.34-34.5 169.34-33.42ZM185.23 0.49L185.23 0.49Q180.3 0.49 177.67-2.45 175.03-5.4 174.98-11.08L174.98-11.08 174.98-14.28Q174.98-20.19 177.56-23.55 180.13-26.9 184.75-26.9L184.75-26.9Q189.38-26.9 191.68-23.95 193.97-21 194.02-14.75L194.02-14.75 194.02-11.91 179.28-11.91 179.28-11.3Q179.28-7.06 180.88-5.13 182.48-3.2 185.48-3.2L185.48-3.2Q187.38-3.2 188.83-3.92 190.29-4.64 191.56-6.2L191.56-6.2 193.8-3.47Q191 0.49 185.23 0.49ZM184.75-23.19L184.75-23.19Q182.06-23.19 180.77-21.35 179.47-19.51 179.3-15.63L179.3-15.63 189.7-15.63 189.7-16.21Q189.53-19.97 188.35-21.58 187.16-23.19 184.75-23.19ZM213.87-26.42L218.9-7.59 222.9-26.42 227.17-26.42 220.71 0 217.26 0 212.11-18.9 207.08 0 203.62 0 197.19-26.42 201.44-26.42 205.54-8.06 210.45-26.42 213.87-26.42Z" opacity="1" transform="matrix(1,0,0,1,0,0)" fill="#000000" class="wordmark-text-0" data-fill-palette-color="primary" id="text-0"></path></svg></g></svg></g></svg></g></svg></g><g><svg viewBox="0 0 78.95126215673845 89.37878734725108" height="89.37878734725108" width="78.95126215673845"><g><svg xmlns="http://www.w3.org/2000/svg" xmlns:xlink="http://www.w3.org/1999/xlink" version="1.1" x="0" y="0" viewBox="3.5 0 53 60" style="enable-background:new 0 0 60 60;" xml:space="preserve" height="89.37878734725108" width="78.95126215673845" class="icon-icon-0" data-fill-palette-color="accent" id="icon-0"><g fill="#030303" data-fill-palette-color="accent"><path d="M55.5 60h-33c-3.86 0-7-3.141-7-7V7c0-2.757-2.243-5-5-5-0.552 0-1-0.447-1-1s0.448-1 1-1h39c3.859 0 7 3.141 7 7v52C56.5 59.553 56.052 60 55.5 60zM15.395 2C16.693 3.271 17.5 5.043 17.5 7v46c0 2.757 2.243 5 5 5h32V7c0-2.757-2.243-5-5-5H15.395z" fill="#000000" data-fill-palette-color="accent"></path><path d="M16.5 54h-6c-3.86 0-7-3.141-7-7V7c0-3.859 3.14-7 7-7h13c0.552 0 1 0.447 1 1s-0.448 1-1 1h-13c-2.757 0-5 2.243-5 5v40c0 2.757 2.243 5 5 5h6c0.552 0 1 0.447 1 1S17.052 54 16.5 54z" fill="#000000" data-fill-palette-color="accent"></path><path d="M49.5 46h-27c-0.552 0-1-0.447-1-1s0.448-1 1-1h27c0.552 0 1 0.447 1 1S50.052 46 49.5 46z" fill="#000000" data-fill-palette-color="accent"></path><path d="M49.5 40h-27c-0.552 0-1-0.447-1-1s0.448-1 1-1h27c0.552 0 1 0.447 1 1S50.052 40 49.5 40z" fill="#000000" data-fill-palette-color="accent"></path><path d="M49.5 30h-27c-0.552 0-1-0.447-1-1s0.448-1 1-1h27c0.552 0 1 0.447 1 1S50.052 30 49.5 30z" fill="#000000" data-fill-palette-color="accent"></path><path d="M49.5 26h-27c-0.552 0-1-0.447-1-1s0.448-1 1-1h27c0.552 0 1 0.447 1 1S50.052 26 49.5 26z" fill="#000000" data-fill-palette-color="accent"></path><path d="M49.5 22h-27c-0.552 0-1-0.447-1-1s0.448-1 1-1h27c0.552 0 1 0.447 1 1S50.052 22 49.5 22z" fill="#000000" data-fill-palette-color="accent"></path><path d="M49.5 18h-13c-0.552 0-1-0.447-1-1s0.448-1 1-1h13c0.552 0 1 0.447 1 1S50.052 18 49.5 18z" fill="#000000" data-fill-palette-color="accent"></path><path d="M49.5 14h-13c-0.552 0-1-0.447-1-1s0.448-1 1-1h13c0.552 0 1 0.447 1 1S50.052 14 49.5 14z" fill="#000000" data-fill-palette-color="accent"></path><path d="M49.5 8h-13c-0.552 0-1-0.447-1-1s0.448-1 1-1h13c0.552 0 1 0.447 1 1S50.052 8 49.5 8z" fill="#000000" data-fill-palette-color="accent"></path><path d="M49.5 50h-27c-0.552 0-1-0.447-1-1s0.448-1 1-1h27c0.552 0 1 0.447 1 1S50.052 50 49.5 50z" fill="#000000" data-fill-palette-color="accent"></path><path d="M32.5 18h-10c-0.552 0-1-0.447-1-1V7c0-0.553 0.448-1 1-1h10c0.552 0 1 0.447 1 1v10C33.5 17.553 33.052 18 32.5 18zM23.5 16h8V8h-8V16z" fill="#000000" data-fill-palette-color="accent"></path></g></svg></g></svg></g></svg></g><defs></defs></svg><rect width="395.52" height="69.20199201801121" fill="none" stroke="none" visibility="hidden"></rect></g></svg></g></svg>