<svg xmlns="http://www.w3.org/2000/svg" version="1.1" xmlns:xlink="http://www.w3.org/1999/xlink" xmlns:svgjs="http://svgjs.dev/svgjs" width="2000" height="808" viewBox="0 0 2000 808"><g transform="matrix(1,0,0,1,-1.2121212121212466,-0.866483106680505)"><svg viewBox="0 0 396 160" data-background-color="#ffffff" preserveAspectRatio="xMidYMid meet" height="808" width="2000" xmlns="http://www.w3.org/2000/svg" xmlns:xlink="http://www.w3.org/1999/xlink"><g id="tight-bounds" transform="matrix(1,0,0,1,0.2400000000000091,0.17158081320405927)"><svg viewBox="0 0 395.52 159.65683837359188" height="159.65683837359188" width="395.52"><g><svg viewBox="0 0 397.4975999999999 160.45512256545982" height="159.65683837359188" width="395.52"><g><rect width="397.4975999999999" height="4.9145284807712795" x="0" y="88.17908167265672" fill="#000000" opacity="1" stroke-width="0" stroke="transparent" fill-opacity="1" class="rect-qz-0" data-fill-palette-color="secondary" rx="1%" id="qz-0" data-palette-color="#89939e"></rect></g><g transform="matrix(1,0,0,1,0.9887999999999693,105.95886795649417)"><svg viewBox="0 0 395.52 54.49625460896566" height="54.49625460896566" width="395.52"><g id="textblocktransform"><svg viewBox="0 0 395.52 54.49625460896566" height="54.49625460896566" width="395.52" id="textblock"><g><svg viewBox="0 0 395.52 54.49625460896566" height="54.49625460896566" width="395.52"><g transform="matrix(1,0,0,1,0,0)"><svg width="395.52" viewBox="4 -35 257.63 35.5" height="54.49625460896566" data-palette-color="#636365"><path d="M8.75 0L4 0 4-35 9.15-35 26.4-8.8 26.4-35 31.2-35 31.2 0 27.15 0 8.75-27.65 8.75 0ZM49.3 0.5L49.3 0.5Q44.97 0.5 42.02-1.28 39.07-3.05 37.56-5.99 36.05-8.93 36.05-12.45L36.05-12.45Q36.05-15.88 37.46-18.73 38.87-21.58 41.56-23.29 44.25-25 48.05-25L48.05-25Q51.1-25 53.48-23.79 55.87-22.58 57.23-20.26 58.6-17.95 58.6-14.65L58.6-14.65Q58.6-14.13 58.56-13.51 58.52-12.9 58.4-12.25L58.4-12.25 40.65-12.25Q40.97-8.85 42.27-6.95 43.57-5.05 45.55-4.28 47.52-3.5 49.85-3.5L49.85-3.5Q51.55-3.5 53.4-3.85 55.25-4.2 56.9-4.95L56.9-4.95 57.5-1.4Q56.07-0.78 54.02-0.14 51.97 0.5 49.3 0.5ZM41.05-15.35L41.05-15.35 53.95-15.35Q53.95-17.07 53.3-18.35 52.65-19.63 51.32-20.31 50-21 47.95-21L47.95-21Q44.95-21 43.34-19.51 41.72-18.03 41.05-15.35ZM71.95 0.5L71.95 0.5Q69.07 0.5 67.05-0.66 65.02-1.83 63.96-4.2 62.9-6.58 62.9-10.25L62.9-10.25 62.9-24.5 67.4-24.5 67.4-11.5Q67.4-7.6 68.73-5.55 70.07-3.5 73.09-3.5L73.09-3.5Q75.17-3.5 76.95-4.5 78.72-5.5 79.4-7.7L79.4-7.7 78.75-5.25 78.75-24.5 83.25-24.5 83.25 0 79.25 0 78.34-4.8 79.55-4Q78.32-1.73 76.56-0.61 74.8 0.5 71.95 0.5ZM101.84 0.5L97.79 0.5Q95.47 0.5 94.07-0.35 92.67-1.2 92.03-2.54 91.39-3.88 91.39-5.35L91.39-5.35 91.39-21 87.19-21 87.59-24.5 91.39-24.5 91.39-30.55 95.89-31 95.89-24.5 102.34-24.5 102.34-21 95.89-21 95.89-8.1Q95.89-5.75 96.17-4.7 96.44-3.65 97.53-3.38 98.62-3.1 101.04-3.1L101.04-3.1 102.19-3.1 101.84 0.5ZM110.99 0L106.19 0 106.19-24.5 109.89-24.5 110.44-20.45Q112.32-22.78 114.03-23.89 115.74-25 117.69-25L117.69-25Q118.32-25 118.84-24.85L118.84-24.85 118.39-19.9Q118.07-19.98 117.7-20.01 117.34-20.05 116.89-20.05L116.89-20.05Q114.94-20.05 113.3-19.19 111.67-18.32 110.99-17.3L110.99-17.3 110.99 0ZM132.04 0.5L132.04 0.5Q128.19 0.5 125.48-1.21 122.76-2.93 121.33-5.81 119.89-8.7 119.89-12.25L119.89-12.25Q119.89-15.8 121.33-18.69 122.76-21.58 125.48-23.29 128.19-25 132.04-25L132.04-25Q135.86-25 138.59-23.29 141.31-21.58 142.75-18.69 144.19-15.8 144.19-12.25L144.19-12.25Q144.19-8.7 142.75-5.81 141.31-2.93 138.59-1.21 135.86 0.5 132.04 0.5ZM132.04-3.5L132.04-3.5Q135.69-3.5 137.64-5.81 139.59-8.13 139.59-12.25L139.59-12.25Q139.59-16.38 137.64-18.69 135.69-21 132.04-21L132.04-21Q128.41-21 126.45-18.69 124.49-16.38 124.49-12.25L124.49-12.25Q124.49-8.13 126.45-5.81 128.41-3.5 132.04-3.5ZM174.78 0L169.78 0 157.23-35 162.23-35 172.98-4.65 171.58-4.65 182.33-35 187.33-35 174.78 0ZM197.28 0L192.78 0 192.78-24.5 197.28-24.5 197.28 0ZM197.28-30L192.78-30 192.78-35 197.28-35 197.28-30ZM215.13 0.5L215.13 0.5Q210.8 0.5 207.85-1.28 204.9-3.05 203.39-5.99 201.88-8.93 201.88-12.45L201.88-12.45Q201.88-15.88 203.29-18.73 204.7-21.58 207.39-23.29 210.08-25 213.88-25L213.88-25Q216.93-25 219.32-23.79 221.7-22.58 223.07-20.26 224.43-17.95 224.43-14.65L224.43-14.65Q224.43-14.13 224.39-13.51 224.35-12.9 224.23-12.25L224.23-12.25 206.48-12.25Q206.8-8.85 208.1-6.95 209.4-5.05 211.38-4.28 213.35-3.5 215.68-3.5L215.68-3.5Q217.38-3.5 219.23-3.85 221.08-4.2 222.73-4.95L222.73-4.95 223.33-1.4Q221.9-0.78 219.85-0.14 217.8 0.5 215.13 0.5ZM206.88-15.35L206.88-15.35 219.78-15.35Q219.78-17.07 219.13-18.35 218.48-19.63 217.15-20.31 215.83-21 213.78-21L213.78-21Q210.78-21 209.17-19.51 207.55-18.03 206.88-15.35ZM238.93 0L233.88 0 226.53-24.5 231.83-24.5 236.53-4.95 241.73-23.75 246.38-23.75 251.63-4.95 256.32-24.5 261.63-24.5 254.23 0 249.18 0 244.08-18.1 238.93 0Z" opacity="1" transform="matrix(1,0,0,1,0,0)" fill="#000000" class="wordmark-text-0" data-fill-palette-color="primary" id="text-0"></path></svg></g></svg></g></svg></g></svg></g><g transform="matrix(1,0,0,1,150.40210864129074,0)"><svg viewBox="0 0 96.69338271741844 75.31382386959055" height="75.31382386959055" width="96.69338271741844"><g><svg xmlns="http://www.w3.org/2000/svg" xmlns:xlink="http://www.w3.org/1999/xlink" version="1.1" x="8" y="0" viewBox="5.5 7.5 90 84" enable-background="new 0 0 100 100" xml:space="preserve" height="75.31382386959055" width="80.69338271741844" class="icon-icon-0" data-fill-palette-color="accent" id="icon-0"><g fill="#89939e" data-fill-palette-color="accent"><polygon points="43.5,29.609 43.39,29.5 41.976,29.5 43.5,31.031  " fill="#000000" data-fill-palette-color="accent"></polygon><polygon points="43.5,38.145 34.906,29.5 33.491,29.5 43.5,39.566  " fill="#000000" data-fill-palette-color="accent"></polygon><polygon points="36.76,65.5 5.5,34.063 5.5,35.484 35.346,65.5  " fill="#000000" data-fill-palette-color="accent"></polygon><polygon points="33.932,65.5 5.5,36.906 5.5,38.328 32.518,65.5  " fill="#000000" data-fill-palette-color="accent"></polygon><polygon points="43.5,55.213 17.935,29.5 16.521,29.5 43.5,56.635  " fill="#000000" data-fill-palette-color="accent"></polygon><polygon points="43.5,35.299 37.734,29.5 36.32,29.5 43.5,36.721  " fill="#000000" data-fill-palette-color="accent"></polygon><polygon points="42.417,65.5 6.621,29.5 5.5,29.5 5.5,29.795 41.002,65.5  " fill="#000000" data-fill-palette-color="accent"></polygon><polygon points="43.5,40.988 32.077,29.5 30.663,29.5 43.5,42.41  " fill="#000000" data-fill-palette-color="accent"></polygon><polygon points="43.5,32.455 40.562,29.5 39.148,29.5 43.5,33.877  " fill="#000000" data-fill-palette-color="accent"></polygon><polygon points="14.134,65.5 5.5,56.799 5.5,58.221 12.721,65.5  " fill="#000000" data-fill-palette-color="accent"></polygon><polygon points="43.5,58.057 15.106,29.5 13.692,29.5 43.5,59.479  " fill="#000000" data-fill-palette-color="accent"></polygon><polygon points="8.035,29.5 43.5,65.168 43.5,63.744 9.449,29.5  " fill="#000000" data-fill-palette-color="accent"></polygon><polygon points="43.5,60.9 12.278,29.5 10.863,29.5 43.5,62.322  " fill="#000000" data-fill-palette-color="accent"></polygon><polygon points="39.588,65.5 5.5,31.219 5.5,32.641 38.174,65.5  " fill="#000000" data-fill-palette-color="accent"></polygon><polygon points="22.616,65.5 5.5,48.281 5.5,49.699 21.202,65.5  " fill="#000000" data-fill-palette-color="accent"></polygon><polygon points="25.445,65.5 5.5,45.439 5.5,46.861 24.031,65.5  " fill="#000000" data-fill-palette-color="accent"></polygon><polygon points="43.5,43.834 29.248,29.5 27.834,29.5 43.5,45.256  " fill="#000000" data-fill-palette-color="accent"></polygon><polygon points="43.5,49.523 23.591,29.5 22.177,29.5 43.5,50.945  " fill="#000000" data-fill-palette-color="accent"></polygon><polygon points="16.961,65.5 5.5,53.957 5.5,55.377 15.548,65.5  " fill="#000000" data-fill-palette-color="accent"></polygon><polygon points="19.789,65.5 5.5,51.119 5.5,52.537 18.375,65.5  " fill="#000000" data-fill-palette-color="accent"></polygon><polygon points="43.5,52.367 20.763,29.5 19.349,29.5 43.5,53.789  " fill="#000000" data-fill-palette-color="accent"></polygon><polygon points="11.307,65.5 5.5,59.643 5.5,61.066 9.893,65.5  " fill="#000000" data-fill-palette-color="accent"></polygon><polygon points="8.479,65.5 5.5,62.492 5.5,63.918 7.065,65.5  " fill="#000000" data-fill-palette-color="accent"></polygon><polygon points="31.104,65.5 5.5,39.75 5.5,41.174 29.689,65.5  " fill="#000000" data-fill-palette-color="accent"></polygon><polygon points="28.273,65.5 5.5,42.596 5.5,44.018 26.859,65.5  " fill="#000000" data-fill-palette-color="accent"></polygon><polygon points="43.5,46.678 26.42,29.5 25.006,29.5 43.5,48.1  " fill="#000000" data-fill-palette-color="accent"></polygon><rect x="5.5" y="17.5" width="67" height="6" fill="#000000" data-fill-palette-color="accent"></rect><rect x="49.5" y="29.5" width="46" height="4" fill="#000000" data-fill-palette-color="accent"></rect><rect x="5.5" y="87.5" width="45" height="4" fill="#000000" data-fill-palette-color="accent"></rect><rect x="5.5" y="71.5" width="83" height="4" fill="#000000" data-fill-palette-color="accent"></rect><rect x="5.5" y="79.5" width="90" height="4" fill="#000000" data-fill-palette-color="accent"></rect><rect x="49.5" y="53.5" width="46" height="4" fill="#000000" data-fill-palette-color="accent"></rect><rect x="49.5" y="37.5" width="29" height="4" fill="#000000" data-fill-palette-color="accent"></rect><rect x="49.5" y="61.5" width="29" height="4" fill="#000000" data-fill-palette-color="accent"></rect><rect x="49.5" y="45.5" width="39" height="4" fill="#000000" data-fill-palette-color="accent"></rect><rect x="5.5" y="7.5" width="90" height="6" fill="#000000" data-fill-palette-color="accent"></rect></g></svg></g></svg></g><g><rect width="73.86898864129077" height="4.9145284807712795" y="69.39929538881927" x="247.09549135870918" fill="#000000" data-fill-palette-color="secondary"></rect><rect width="73.86898864129077" height="4.9145284807712795" y="69.39929538881927" x="76.53311999999997" fill="#000000" data-fill-palette-color="secondary"></rect></g></svg></g><defs></defs></svg><rect width="395.52" height="159.65683837359188" fill="none" stroke="none" visibility="hidden"></rect></g></svg></g></svg>