<svg xmlns="http://www.w3.org/2000/svg" version="1.1" xmlns:xlink="http://www.w3.org/1999/xlink" xmlns:svgjs="http://svgjs.dev/svgjs" width="128" height="128" viewBox="0 0 128 128"><g transform="matrix(0.8046875,0,0,0.8046875,12.760752631578946,16.183282531601122)"><svg viewBox="0 0 95 89" data-background-color="#ffffff" preserveAspectRatio="xMidYMid meet" height="119" width="128" xmlns="http://www.w3.org/2000/svg" xmlns:xlink="http://www.w3.org/1999/xlink"><g id="tight-bounds" transform="matrix(1,0,0,1,-0.24049999999999727,-0.057800000000000296)"><svg viewBox="0 0 95.481 89.1156" height="89.1156" width="95.481"><g><svg viewBox="0 0 95.481 89.1156" height="89.1156" width="95.481"><g><svg viewBox="0 0 95.481 89.1156" height="89.1156" width="95.481"><g id="textblocktransform"><svg viewBox="0 0 95.481 89.1156" height="89.1156" width="95.481" id="textblock"><g><svg viewBox="0 0 95.481 89.1156" height="89.1156" width="95.481"><g><svg viewBox="0 0 95.481 89.1156" height="89.1156" width="95.481"><g><svg xmlns="http://www.w3.org/2000/svg" xmlns:xlink="http://www.w3.org/1999/xlink" version="1.1" x="0" y="0" viewBox="5.5 7.5 90 84" enable-background="new 0 0 100 100" xml:space="preserve" height="89.1156" width="95.481" class="icon-icon-0" data-fill-palette-color="accent" id="icon-0"><g fill="#89939e" data-fill-palette-color="accent"><polygon points="43.5,29.609 43.39,29.5 41.976,29.5 43.5,31.031  " fill="#89939e" data-fill-palette-color="accent"></polygon><polygon points="43.5,38.145 34.906,29.5 33.491,29.5 43.5,39.566  " fill="#89939e" data-fill-palette-color="accent"></polygon><polygon points="36.76,65.5 5.5,34.063 5.5,35.484 35.346,65.5  " fill="#89939e" data-fill-palette-color="accent"></polygon><polygon points="33.932,65.5 5.5,36.906 5.5,38.328 32.518,65.5  " fill="#89939e" data-fill-palette-color="accent"></polygon><polygon points="43.5,55.213 17.935,29.5 16.521,29.5 43.5,56.635  " fill="#89939e" data-fill-palette-color="accent"></polygon><polygon points="43.5,35.299 37.734,29.5 36.32,29.5 43.5,36.721  " fill="#89939e" data-fill-palette-color="accent"></polygon><polygon points="42.417,65.5 6.621,29.5 5.5,29.5 5.5,29.795 41.002,65.5  " fill="#89939e" data-fill-palette-color="accent"></polygon><polygon points="43.5,40.988 32.077,29.5 30.663,29.5 43.5,42.41  " fill="#89939e" data-fill-palette-color="accent"></polygon><polygon points="43.5,32.455 40.562,29.5 39.148,29.5 43.5,33.877  " fill="#89939e" data-fill-palette-color="accent"></polygon><polygon points="14.134,65.5 5.5,56.799 5.5,58.221 12.721,65.5  " fill="#89939e" data-fill-palette-color="accent"></polygon><polygon points="43.5,58.057 15.106,29.5 13.692,29.5 43.5,59.479  " fill="#89939e" data-fill-palette-color="accent"></polygon><polygon points="8.035,29.5 43.5,65.168 43.5,63.744 9.449,29.5  " fill="#89939e" data-fill-palette-color="accent"></polygon><polygon points="43.5,60.9 12.278,29.5 10.863,29.5 43.5,62.322  " fill="#89939e" data-fill-palette-color="accent"></polygon><polygon points="39.588,65.5 5.5,31.219 5.5,32.641 38.174,65.5  " fill="#89939e" data-fill-palette-color="accent"></polygon><polygon points="22.616,65.5 5.5,48.281 5.5,49.699 21.202,65.5  " fill="#89939e" data-fill-palette-color="accent"></polygon><polygon points="25.445,65.5 5.5,45.439 5.5,46.861 24.031,65.5  " fill="#89939e" data-fill-palette-color="accent"></polygon><polygon points="43.5,43.834 29.248,29.5 27.834,29.5 43.5,45.256  " fill="#89939e" data-fill-palette-color="accent"></polygon><polygon points="43.5,49.523 23.591,29.5 22.177,29.5 43.5,50.945  " fill="#89939e" data-fill-palette-color="accent"></polygon><polygon points="16.961,65.5 5.5,53.957 5.5,55.377 15.548,65.5  " fill="#89939e" data-fill-palette-color="accent"></polygon><polygon points="19.789,65.5 5.5,51.119 5.5,52.537 18.375,65.5  " fill="#89939e" data-fill-palette-color="accent"></polygon><polygon points="43.5,52.367 20.763,29.5 19.349,29.5 43.5,53.789  " fill="#89939e" data-fill-palette-color="accent"></polygon><polygon points="11.307,65.5 5.5,59.643 5.5,61.066 9.893,65.5  " fill="#89939e" data-fill-palette-color="accent"></polygon><polygon points="8.479,65.5 5.5,62.492 5.5,63.918 7.065,65.5  " fill="#89939e" data-fill-palette-color="accent"></polygon><polygon points="31.104,65.5 5.5,39.75 5.5,41.174 29.689,65.5  " fill="#89939e" data-fill-palette-color="accent"></polygon><polygon points="28.273,65.5 5.5,42.596 5.5,44.018 26.859,65.5  " fill="#89939e" data-fill-palette-color="accent"></polygon><polygon points="43.5,46.678 26.42,29.5 25.006,29.5 43.5,48.1  " fill="#89939e" data-fill-palette-color="accent"></polygon><rect x="5.5" y="17.5" width="67" height="6" fill="#89939e" data-fill-palette-color="accent"></rect><rect x="49.5" y="29.5" width="46" height="4" fill="#89939e" data-fill-palette-color="accent"></rect><rect x="5.5" y="87.5" width="45" height="4" fill="#89939e" data-fill-palette-color="accent"></rect><rect x="5.5" y="71.5" width="83" height="4" fill="#89939e" data-fill-palette-color="accent"></rect><rect x="5.5" y="79.5" width="90" height="4" fill="#89939e" data-fill-palette-color="accent"></rect><rect x="49.5" y="53.5" width="46" height="4" fill="#89939e" data-fill-palette-color="accent"></rect><rect x="49.5" y="37.5" width="29" height="4" fill="#89939e" data-fill-palette-color="accent"></rect><rect x="49.5" y="61.5" width="29" height="4" fill="#89939e" data-fill-palette-color="accent"></rect><rect x="49.5" y="45.5" width="39" height="4" fill="#89939e" data-fill-palette-color="accent"></rect><rect x="5.5" y="7.5" width="90" height="6" fill="#89939e" data-fill-palette-color="accent"></rect></g></svg></g></svg></g></svg></g></svg></g></svg></g><g></g></svg></g><defs></defs></svg><rect width="95.481" height="89.1156" fill="none" stroke="none" visibility="hidden"></rect></g></svg></g></svg>